<svg width="26" height="42" viewBox="0 0 26 42" fill="none" xmlns="http://www.w3.org/2000/svg">
<path d="M0.688019 10.6104C0.828419 9.36845 1.15242 8.15885 1.70322 7.00325C2.70762 4.90805 4.25202 3.33125 6.34722 2.29445C8.02122 1.47365 9.79242 1.09565 11.6284 0.976852C11.7472 0.966052 11.8552 0.933652 11.974 0.922852C12.6544 0.922852 13.3348 0.922852 14.0152 0.922852C14.8144 1.03085 15.6244 1.09565 16.4128 1.24685C18.5944 1.64645 20.56 2.51045 22.1692 4.05485C23.8756 5.69645 24.8584 7.72685 25.2148 10.0597C25.3336 10.8157 25.3768 11.5933 25.3768 12.3601C25.3876 14.8873 25.3876 17.4253 25.3876 19.9525" stroke="black" stroke-miterlimit="10" stroke-linecap="round" stroke-linejoin="round"/>
<path d="M25.3984 21.9286C25.3984 22.0035 25.3984 21.8644 25.3984 21.9286" stroke="black" stroke-miterlimit="10" stroke-linecap="round" stroke-linejoin="round"/>
<path d="M25.3984 23.9161C25.3984 25.9033 25.3984 27.8797 25.3984 29.8669C25.3984 31.6705 25.0744 33.3985 24.2968 35.0293C23.2924 37.1137 21.7696 38.6905 19.6744 39.7057C17.2876 40.8721 14.7388 41.1637 12.1144 41.0665C10.1272 40.9909 8.19402 40.6237 6.39042 39.7489C3.92802 38.5501 2.26482 36.6385 1.30362 34.0897C0.785221 32.7073 0.59082 31.2601 0.59082 29.7805C0.59082 24.1861 0.59082 18.5917 0.59082 13.0081" stroke="black" stroke-miterlimit="10" stroke-linecap="round" stroke-linejoin="round"/>
<path d="M11.3584 11.4746C11.3584 12.047 11.3476 12.6194 11.3584 13.2026C11.38 14.1854 12.0604 14.8982 12.9784 14.909C13.918 14.9198 14.6308 14.207 14.6416 13.2026C14.6524 12.0794 14.6524 10.9562 14.6416 9.83299C14.6308 8.85019 13.9396 8.13738 13.0216 8.12658C12.082 8.11578 11.38 8.83939 11.3584 9.83299C11.3476 10.3838 11.3584 10.9238 11.3584 11.4746Z" stroke="black" stroke-miterlimit="10"/>
</svg>
